<?xml version="1.0" encoding="utf-8"?>
<!-- Generator: Adobe Illustrator 23.0.1, SVG Export Plug-In . SVG Version: 6.00 Build 0)  -->
<svg version="1.1" id="Layer_1" xmlns="http://www.w3.org/2000/svg" xmlns:xlink="http://www.w3.org/1999/xlink" x="0px" y="0px"
	 viewBox="0 0 759.65 778.07" style="enable-background:new 0 0 759.65 778.07;" xml:space="preserve">
<style type="text/css">
	.st0{fill:#00DDDD;}
	.st1{fill:none;stroke:#003A0A;stroke-width:3;stroke-miterlimit:10;}
	.st2{fill:#FBAE17;}
	.st3{clip-path:url(#SVGID_2_);}
	.st4{fill:#43190B;}
	.st5{fill:#162223;}
	.st6{fill:#EA727B;}
	.st7{fill:#F15A29;stroke:#2C3536;stroke-miterlimit:10;}
	.st8{fill:#2D2D2D;}
	.st9{fill:#F15A24;}
	.st10{fill:#BE1E2D;}
	.st11{fill:#FFD127;}
	.st12{fill:#FFFFFF;}
	.st13{fill:none;stroke:#2C3536;stroke-miterlimit:10;}
</style>
<g>
	<path class="st0" d="M244.75,602.04c0,0,38.74,5.36,60.99,4.12c0,0,31.73-1.28,47.8,0.19c0,0,9.07,2.95,13.19,3.03
		s16.9,2.14,33.79-1.98c0,0-49.04-2.06-56.04-3.71c0,0-25.55-3.3-32.14-1.65C312.33,602.04,255.05,604.1,244.75,602.04z"/>
	<path class="st0" d="M300.63,609.38c0,0,53,6.26,81.93,2.55c0,0,29.75-2.7,32.64-1.97c2.88,0.73,5.77,4.19-12.36,5.96
		c0,0-32.89,1.77-43.85,6.72c0,0,5.39-4.61,32.59-6.63c0,0,21.15-0.37,22.12-3.81c0,0-12.91-1.51-43.27,2.2
		c0,0-46.98,1.83-69.78-4.44"/>
	<path class="st0" d="M340.47,632.49c0,0,64.15-5.77,83.52-2.61c19.37,3.16,0,0.83,0,0.83l-34.89,1.78c0,0-13.05,0.27-17.58,1.24
		S343.76,633.72,340.47,632.49z"/>
	<path class="st0" d="M300.63,582.09c0,0,64.15-5.77,83.52-2.61s0,0.83,0,0.83l-34.89,1.78c0,0-13.05,0.27-17.58,1.24
		S303.93,583.33,300.63,582.09z"/>
	<path class="st0" d="M310.8,595.58c0,0,27.75,0.41,39.7-2.34c0,0,30.91-4.4,51.37,0c0,0,16.94,1.1,30.72,1.79
		c0,0,14.19-0.55,15.98-2.2v1.65c0,0-20.06,3.85-45.47,3.02s-25.41-0.82-25.41-0.82l0,0c0,0-11.4-0.82-15.66,0.27
		C357.77,598.05,318.08,601.49,310.8,595.58z"/>
	<path class="st0" d="M326.5,637.37c0.87,0.01,1.78,0.01,2.48,0.04c0.7,0.03,1.06,0.09,0.53,0.13c-1.37,0.01-2.75,0.02-4.12,0.02
		c-1.57,0.01-13.73,0.11-12.59-0.08c0.47-0.08,4.59-0.11,5.86-0.12C321.25,637.34,323.9,637.36,326.5,637.37z"/>
	<path class="st0" d="M269.71,597.44c0.87,0.01,1.78,0.01,2.48,0.04s1.06,0.09,0.53,0.13c-1.37,0.01-2.75,0.02-4.12,0.02
		c-1.57,0.01-13.73,0.11-12.59-0.08c0.47-0.08,4.59-0.11,5.86-0.12C264.46,597.41,267.12,597.42,269.71,597.44z"/>
	<path class="st0" d="M464.83,606.72c1.6-0.23,3.18-0.59,4.8-0.65c1.14-0.04,2.28,0.08,3.42,0.14c5.62,0.32,11.24-0.59,16.79-1.5
		c1.86-0.3,3.82-0.65,5.27-1.86c-3.24-0.34-6.54-0.06-9.68,0.8c-3.41,0.94-6.78,2.58-10.29,2.16c-1.57-0.19-3.07-0.79-4.64-0.99
		c-2.36-0.3-4.72,0.33-7.08,0.63c-7.18,0.9-14.31-0.66-21.5,0.49C449.57,605.95,457.18,607.84,464.83,606.72z"/>
	<path class="st0" d="M296.94,592.37c1.6-0.23,3.18-0.59,4.8-0.65c1.14-0.04,2.28,0.08,3.42,0.14c5.62,0.32,11.24-0.59,16.79-1.5
		c1.86-0.3,3.82-0.65,5.27-1.86c-3.24-0.34-6.54-0.06-9.68,0.8c-3.41,0.94-6.78,2.58-10.29,2.16c-1.57-0.19-3.07-0.79-4.64-0.99
		c-2.36-0.3-4.72,0.33-7.08,0.63c-7.18,0.9-14.31-0.66-21.5,0.49C281.69,591.61,289.29,593.49,296.94,592.37z"/>
	<path class="st0" d="M475.98,595.77c3.3,0.5,6.53,1.49,9.86,1.7c1.8,0.12,3.65,0.02,5.36,0.6c0.94,0.32,1.8,0.84,2.71,1.23
		c3.6,1.53,7.71,0.93,11.53,0.1c0.63-0.14,1.28-0.28,1.92-0.2c0.94,0.11,1.75,0.67,2.64,0.98c3.11,1.09,6.36-0.98,9.61-1.43
		c3.13-0.44,6.36,0.63,9.45-0.03c0.39-0.08,0.82-0.23,0.98-0.6c0.38-0.84-0.91-1.38-1.83-1.39c-10.14-0.14-20.28-0.28-30.42-0.42
		c-6.84-0.09-13.7-0.19-20.45-1.24c-1.47-0.23-2.95-0.5-4.44-0.46c-1.09,0.03-2.27,0.22-3.23,0.7
		C471.76,595.59,473.89,595.45,475.98,595.77z"/>
	<path class="st0" d="M250.1,620.87c3.3,0.5,6.53,1.49,9.86,1.7c1.8,0.12,3.65,0.02,5.36,0.6c0.94,0.32,1.8,0.84,2.71,1.23
		c3.6,1.53,7.71,0.93,11.53,0.1c0.63-0.14,1.28-0.28,1.92-0.2c0.94,0.11,1.75,0.67,2.64,0.98c3.11,1.09,6.36-0.98,9.61-1.43
		c3.13-0.44,6.36,0.63,9.45-0.03c0.39-0.08,0.82-0.23,0.98-0.6c0.38-0.84-0.91-1.38-1.83-1.39c-10.14-0.14-20.28-0.28-30.42-0.42
		c-6.84-0.1-13.7-0.19-20.45-1.24c-1.47-0.23-2.95-0.5-4.44-0.46c-1.09,0.03-2.27,0.22-3.23,0.7
		C245.88,620.69,248.01,620.55,250.1,620.87z"/>
	<path class="st0" d="M432.22,584.41c9.17-0.3,18.34-0.59,27.51-0.89c2.17-0.07,4.35-0.14,6.52-0.35c1.67-0.16,3.34-0.4,5.02-0.45
		c4.76-0.13,9.42,1.34,14.16,1.79c5.3,0.5,10.73-0.28,15.67-2.28c-1.04-0.49-2.25-0.21-3.38,0.03c-3.79,0.81-7.71,1-11.57,0.55
		c-3.73-0.43-7.39-1.45-11.14-1.64c-1.97-0.1-3.95,0.03-5.92,0.15c-6.34,0.38-12.68,0.64-19.03,0.9c-3.87,0.16-7.74,0.32-11.61,0.48
		c-3.29,0.14-6.58,0.27-9.86,0.41c-2.22,0.09-4.45,0.18-6.67,0c-4.1-0.34-8.58-2.16-12.68-1.65c0.64,2.24,8.57,2.68,10.62,2.86
		C423.97,584.66,428.1,584.54,432.22,584.41z"/>
	<path class="st0" d="M437.74,621.47c9.17-0.3,18.34-0.59,27.51-0.89c2.17-0.07,4.35-0.14,6.52-0.35c1.67-0.16,3.34-0.4,5.02-0.45
		c4.76-0.13,9.42,1.34,14.16,1.79c5.3,0.5,10.73-0.28,15.67-2.28c-1.04-0.49-2.25-0.21-3.38,0.03c-3.79,0.81-7.71,1-11.57,0.55
		c-3.73-0.43-7.39-1.45-11.14-1.64c-1.97-0.1-3.95,0.03-5.92,0.15c-6.34,0.38-12.68,0.64-19.03,0.9c-3.87,0.16-7.74,0.32-11.61,0.48
		c-3.29,0.14-6.58,0.27-9.86,0.41c-2.22,0.09-4.45,0.18-6.67,0c-4.1-0.34-8.58-2.16-12.68-1.65c0.64,2.24,8.57,2.68,10.62,2.86
		C429.49,621.72,433.63,621.6,437.74,621.47z"/>
</g>
<path class="st1" d="M384.63,566.94c0,0-2.28,90.93,67.2,88.57l-11.44,2.21c0,0-57.27,6.79-59.64-90.12L384.63,566.94z"/>
<g>
	<path class="st2" d="M154.75,300.87l115.38,65.39c-0.77,1.69-1.5,3.41-2.2,5.14l-33.73-10.95l32.4,14.41
		c-0.11,0.31-3.15,6.27-3.26,6.58c32.3,9.15,76.55,18.2,112.74,65.41c2.67,3.48,4.22,8.01,6.66,10.93l10.52-12.93
		c0,0,24.57-45.2,106.92-65.58c1.02,3.45,9.82,4.41,6.57,0l29.2-18.8l-33.75,10.95c-0.68-1.71-1.41-3.41-2.17-5.08l115.38-65.37
		L494.7,355.88c-0.91-1.6-1.86-3.18-2.83-4.73l28.71-20.85l-30.71,17.77c-0.28-0.42-0.57-0.84-0.85-1.26l57.09-45.47l-60.9,40.24
		c-0.31-0.4-0.63-0.79-0.94-1.19l26.4-23.71l-28.72,20.85c-1.2-1.44-2.44-2.85-3.7-4.23l89.53-97.85l-97.84,89.56
		c-1.34-1.21-2.7-2.4-4.08-3.56l20.87-28.72L463,319.14c-0.42-0.33-0.84-0.66-1.26-0.99L502,257.24l-45.48,57.12
		c-0.39-0.27-0.79-0.53-1.19-0.8l17.75-30.72l-20.86,28.69c-1.58-0.99-3.17-1.95-4.79-2.87l54.91-120.72l-65.37,115.39
		c-1.63-0.74-3.28-1.45-4.95-2.11l11-33.72l-14.44,32.4c-0.51-0.19-1.02-0.38-1.53-0.56l19.45-70.34l-25.59,68.35
		c-0.46-0.14-0.92-0.26-1.38-0.4l7.38-34.67l-10.96,33.7c-1.77-0.45-3.56-0.85-5.35-1.23l14.9-131.77l-26.58,129.93
		c-1.78-0.2-3.57-0.36-5.37-0.48l0.04-35.46l-3.72,35.27c-0.52-0.02-1.04-0.04-1.56-0.05l-3.25-72.93l-3.26,72.94
		c-0.5,0.01-1,0.03-1.5,0.05l-3.74-35.27l0.03,35.47c-1.8,0.12-3.61,0.28-5.43,0.49l-26.56-129.95l14.87,131.81
		c-1.76,0.36-3.5,0.77-5.22,1.2l-10.93-33.75l7.35,34.7c-0.5,0.14-1,0.28-1.5,0.43l-25.63-68.36l19.44,70.37
		c-0.47,0.17-0.94,0.34-1.41,0.51l-14.45-32.38l10.98,33.7c-1.67,0.67-3.31,1.37-4.94,2.1L267.7,187.97l54.89,120.72
		c-1.58,0.9-3.14,1.83-4.68,2.8l-20.81-28.69l17.7,30.72c-0.42,0.28-0.83,0.56-1.24,0.84l-45.51-57.08l40.24,60.91
		c-0.41,0.32-0.81,0.64-1.22,0.96l-23.75-26.35l20.88,28.67c-1.38,1.15-2.73,2.34-4.06,3.54l-97.9-89.5l89.54,97.87
		c-1.23,1.35-2.43,2.73-3.6,4.13l-28.71-20.84l26.37,23.73c-0.3,0.38-0.6,0.76-0.9,1.14L224,301.3l57.12,45.51
		c-0.29,0.43-0.58,0.86-0.87,1.29l-30.75-17.73l28.74,20.83c-0.95,1.52-1.87,3.06-2.76,4.61L154.75,300.87z"/>
</g>
<g>
	<defs>
		<path id="SVGID_1_" d="M276.48,384.15c0,0,52.93,11.09,87.94,49.04l15.87,13.67l13.15-3.36l20.33-21.16
			c0,0,40.76-32.39,63.57-34.13l20.88-12.76l-9.28-12.57l-27.45-36.34l-3.87-10.63l-69.33-23.72l-24.74-4.89l-37.77,6.96
			l-50.3,61.55L276.48,384.15z"/>
	</defs>
	<clipPath id="SVGID_2_">
		<use xlink:href="#SVGID_1_"  style="overflow:visible;"/>
	</clipPath>
	<g class="st3">
		<g>
			<path class="st4" d="M416.8,334.09c0,0-0.54-3.94,4.3-5.21c0,0,4.36-1.21,8.66,0c0,0,0.91,0.32,0.85-0.54
				c0,0,1.15-2.07,3.15-0.85c0,0,3.57,1.45,3.57,9.75c0,0-1.15,6.78,1.21,10.6c0,0,2.66,3.45,4.78,4.97c0,0,7.51,5.03,6.96,19.5
				c0,0-2.43,5.81,0.03,12.11c0,0,2.51,5.27,4.88,7.75c0,0,2.6,3.57,2.42,10.6c0,0-0.12,4.97-2.66,7.33c0,0-0.97,0.48-0.18,1.33
				c0,0,1.09,1.03,1.51,2.42c0,0,0.54,1.45,2.97,1.82c0,0,3.51,0.18,3.69,2.72c0,0,0.36,0.54-1.57,0.54c0,0-9.14-1.88-16.41-0.67
				c0,0-18.53,2.48-28.58-0.79c0,0-8.84-1.94-8.17-7.75c0,0,0.24-6.36,6.9-8.05l17.08-5.75c0,0-0.73-4.54-0.73-5.69
				c0,0-9.2,0.06-12.23-1.03c0,0-3.69-0.67-7.45-0.18c0,0-4.54,1.33-7.15,0.73l-1.21-1.03c0,0-2.91-0.85-3.09-1.7
				c0,0-0.48-0.3-1.63-0.12c0,0-4.78,0.36-5.39-0.12c0,0-1.45-0.54,0-1.27c0,0,1.39-0.73,2.79-0.91l0.67-0.36
				c0,0-2.42-0.97,0.36-2.42c0,0,4.97-2.85,13.93-3.45c0,0,9.69-0.36,9.08,2.42c0,0,0,0.67-0.42,0.97c0,0,0,0.48,1.82,0.3l4.3,0.18
				c0,0,2,0.36-4.6,1.94c0,0-0.48,0.42,1.45,0.48l5.14-0.12l3.03-0.18l-0.18-2.36c0,0-5.57-2.79-6.12-7.21c0,0-0.91-2.66,1.33-6.12
				c0,0,2.42-4.3,3.03-7.15c0,0,1.44-4.36-1.1-6.9c0,0-1.81-2.48-3.69-2.06c0,0-0.88,0.45-1.42,1.18c-0.54,0.73-2.51,0.73-2.66-0.33
				c0,0-0.15-1.18-0.67-1.7c0,0-0.88-0.32-0.95-1.23c0,0-0.55-0.3-0.43-0.98l0.05-0.79c0,0-0.16-0.61-1.25-0.48
				c0,0-1.98,0.09-1.34-1.54c0,0,0.95-1.45,1.14-2.75c0,0,0.2-1.2-0.52-2.34c0,0-1.2-1.16-0.75-3.81c0,0,0.36-2.11,0.86-2.7
				C416.18,335.09,416.82,334.68,416.8,334.09z"/>
			<path class="st4" d="M381.8,388.53c0,0,15.87-0.36,19.14,2.66c0,0,2.54,1.09,2.42,4.48c0,0,0.48,3.15,2.06,6.18
				c0,0,5.09,8.6-4.97,14.05c0,0-7.02,5.33-18.65,5.09l-38.63,0.61c0,0-25.67-1.45-27.61-4.36l-4.24-15.74l-1.33-11.38
				c0,0,0.74-1.79,3.69-1.97c0,0,4.81-0.73,6.63-0.73c0,0,1.59-0.09,0-1.45c0,0-3.45-2.68-1.86-10.13c0,0,1.88-15.22,3.41-16.85
				c0,0-0.97-4.24,0.12-14.65c0,0,0.32-9.1,6.72-12.05c0,0,3.45-1.54,4.68-1.95c0,0,2.27-0.95,2.27-3.36l-0.41-3.95
				c0,0-1.77-10.31,1.77-12.85c0.39-0.28,0.7-0.7,1.09-0.99c0.59-0.43,1.24-0.78,1.92-1.06c0.34-0.14,0.7-0.24,1.06-0.34
				c0.27-0.08,0.78-0.15,0.98-0.36c-0.15-0.17-0.38-0.26-0.55-0.4c-0.21-0.17-0.51-0.59-0.15-0.77c0.04-0.02,0.07-0.03,0.08-0.07
				c-0.12-0.13-0.27-0.27-0.36-0.43c-0.11-0.19-0.09-0.31,0.08-0.44c0.15-0.12,0.25-0.11,0.22-0.31c-0.04-0.27-0.28-0.44-0.26-0.75
				c0.03-0.39,0.34-0.67,0.66-0.85c0.85-0.47,1.99-0.53,2.94-0.59c1.08-0.07,2.26-0.1,3.31,0.22c0.38,0.12,0.71,0.31,0.88,0.69
				c0.03,0.07,0.06,0.15,0.05,0.23c-0.02,0.23-0.27,0.3-0.35,0.5c-0.13,0.32,0.35,0.29,0.34,0.54c-0.02,0.25-0.41,0.19-0.21,0.51
				c0.17,0.29,0.34,0.57,0.44,0.89c0.08,0.25,0.15,0.55,0.07,0.81c-0.04,0.16-0.33,0.59-0.55,0.51c0,0,5.13,2.04,6.18,4.9
				c0,0,0.86,2.09-0.18,2.68c0,0-0.36,5.22-0.59,5.59c0,0-0.14,0.45-0.86,0.73c0,0-0.59,0.23-0.59,1.14l0.23,4.59c0,0,0.32,0.95-1,1
				l-0.82-0.09l0.05,1.36c0,0-0.18,0.66-1,0.53l-0.32,0.24c0,0,0.86,1.21-0.14,1.35c0,0-0.3,0.21-0.3,0.35
				c0,0.14,0.03,0.38,0.03,0.38s2.54,4.89,2.35,6.34l0.09,0.18l-0.73,0.01c-0.13,0-0.26-0.02-0.38-0.06l1.46-3.07l0.17,7.42
				l-0.5-0.18l-0.73-0.36h-0.23l-0.34-0.09l-0.34-0.05h-0.45l-0.18-0.36l1.91-3.91l-0.36-0.18l-0.36-0.05l-0.18,0.23
				c0,0,1.18,4,2.11,9.4c0,0,1.29,17.2-0.07,18.38c-0.9,0.77,9.17-2.04,13.13,2.55c0,0,5.33,4.15,6.37,5.14c0,0,0.5,0.36,1.63,0.32
				c0,0,8.77-0.95,10.17,5.54c0,0,1.54,4.9-1.18,7.27C382.71,386.91,380.76,387.79,381.8,388.53z"/>
			<path class="st4" d="M335.31,313.81c0,0-1.31,2.07-1.44,6.43c0,0,0.29,3.52-2.35,5.39c0,0-1.07,1.28-1.22,2.44
				c0,0-0.6,1.62,0.59,0.69c0,0,1.26-2.01,0.6-0.03c0,0-0.42,0.95,0.11,0.91l0.19,0.52l-0.28,0.53l-1.11,0.77
				c0,0-1.27,0.89-0.75,0.91s1.77-0.25,1.84-0.27s3.54-1.07,3.54-1.07l3.84-6.68l0.16-4.95l-0.34-4.09l-0.41-2.54
				C338.28,312.76,336.64,311.04,335.31,313.81z"/>
			<path class="st4" d="M349.07,332.36c0,0,1.04,2.16,1.18,3.16c0,0,1.92,2.39,1.92,3.01c0,0,0.11,1-0.25,0.48
				c0,0-0.14,0.14,0.02,0.45c0,0,0.39-0.27,0.07-0.38c0,0-0.36,0.36-0.79,0.11c0,0,1.85-2.67,1.24-3.24c0,0,1,8.55-0.39,7.22
				l-0.72-0.33l-0.4,0.09l0.32,0.14l-0.59-0.41l0.16,0.38l-0.66-0.47v0.29l-0.36-0.48l-0.09,0.19c0,0,1.65-3.98,1.51-4.38
				s0-1.23,0-1.23l-5.25-1.04l1.34-2.32L349.07,332.36z"/>
			<path class="st4" d="M330.11,333.29c0,0,6.29-0.87,13.43,3.65c0,0,8.11,3.87,11.68,4.39c0,0,6.22,1.94,7.08,1.82
				c0,0,2.92,0.84,6.88-1.09c2.43-1.19,4.72-2.67,7.1-3.95c1.97-1.05,4.38-1.55,5.86-3.35c1.1-1.33,0.85-2.81,1.41-4.32
				c0.3-0.81,0.68-1.57,1.16-2.28c1.37-2.03,3.53-3.8,5.79-4.75c0,0,6.79-2.85,9.45-1.77c0,0,0.55-0.04,0.22,0.96
				c0,0,1.75-0.07,1.53,1.08c0,0-0.44,0.52-1.2,0.7c0,0,2.31,0.98-1.04,2.61c0,0-5.24,1.09-10.54,8.12c0,0-7.23,9.43-9.11,11.72
				l-3.85,3.94c0,0-1.76,1.53-4.36,2.79c0,0-7.77,1.59-16.89,0.12c0,0-5.68-0.96-8.33-2.04c0,0-2.18-0.76-3.24-1.36
				c0,0-3.3-1.77-6.48,0.41c0,0-0.97,0.65-1.78,2.53C334.9,353.2,323.92,338.03,330.11,333.29z"/>
		</g>
		<path class="st4" d="M349.07,332.36c0,0,1.73,1.67,2.22,2.28c0.48,0.61,2.85,5.52,0.91,3.2c-1.94-2.32,1.24,4.57,0.06,2.86
			c-1.18-1.71,0.69,3.15,0.69,3.15h-6.02l-0.95-5.21l3.41-5.56"/>
	</g>
</g>
<g>
	<path class="st5" d="M400.34,452.25c2.78,3.78,6.33,4.45,10.75,3.18c4.91-1.41,9.93-2.5,14.96-3.42c16.12-2.96,32.24-6,48.43-8.56
		c9.5-1.5,19.13-2.33,28.73-3.13c13.86-1.15,27.75-2.07,41.63-2.91c7.13-0.44,14.29-0.44,21.43-0.81c0.92-0.05,2.49-1.1,2.57-1.82
		c0.62-5.52-5.37-12.22-10.93-12.03c-13.26,0.43-26.56,0.68-39.77,1.82c-12.33,1.07-24.66,2.73-36.84,4.94
		c-22.08,4.02-43.47,10.63-64.54,18.35c-5.34,1.96-11.02,2.98-16.55,4.43c1.28-0.34,3.73-3.21,5.01-3.97
		c11.5-6.86,24.7-12.54,37.22-17.23c23.91-8.96,48.89-13.76,74.35-15.42c13.48-0.88,27.03-0.65,40.55-0.94
		c0.56-0.01,1.11-0.3,1.92-0.53c-0.3-1.04-0.44-1.88-0.78-2.64c-1.57-3.55-3.36-7-4.74-10.62c-2.03-5.33-2.32-5.74-8.1-5.8
		c-18.38-0.2-37.25,0.86-55.44,4.65c-19.17,4-36.71,11.42-53.71,21.03c-11.94,6.75-23.09,14.93-34.52,22.58
		c-2.31,1.54-4.33,3.51-6.51,5.31C397.33,450.09,398.81,451.18,400.34,452.25z"/>
	<path class="st5" d="M207.35,413.86c0.04,0.14,0.09,0.26,0.17,0.36c0.91,1.13,8.64,0.33,10.21,0.38c3.73,0.11,7.45,0.23,11.18,0.38
		c20.4,0.77,42.55,0.13,62.28,6.05c12.58,3.11,24.82,7.46,37.03,11.81c12.47,4.44,23.45,10.12,35.09,16.26
		c1.35,0.71,3.32,0.26,5.01,0.35c-0.47-2.08-1.08-3.18-1.96-3.98c-14.77-13.2-31.55-23.41-49.19-32.18
		c-14.17-7.05-29.11-11.97-44.72-14.99c-16.46-3.18-33.03-4.48-49.72-3.75c-2.77,0.12-6.46,1.7-7.95,3.85
		C213.38,400.4,206.65,411.13,207.35,413.86z"/>
	<path class="st5" d="M197.06,435.99c3.02,1.88,9.83,1.2,13.5,1.33c22.55,0.75,44.76,1.57,67.14,4.55
		c27.49,3.66,54.48,9.46,81.78,14.01c1.23,0.21,2.71-1.1,4.07-1.72c-1.03-1.07-1.86-2.63-3.11-3.11
		c-5.02-1.91-10.26-3.26-15.27-5.22c-26.04-10.2-53.18-16.1-80.78-19.63c-16.37-2.09-32.93-2.79-49.43-3.77
		c-3.77-0.22-8.59-0.25-11.18,1.81C200.47,426.89,198.53,432.17,197.06,435.99z"/>
	<path class="st5" d="M584.82,472.23c-0.62-5.52-1.95-7.01-5.95-7.01c-55.12-0.01-110.23-0.01-165.35,0.01
		c-1.86,0-4.22-0.71-4.22,2.66c0,3.11,1.08,4.63,4.42,4.54c5.76-0.16,11.53-0.08,17.29-0.07c46.07,0.13,92.14,0.29,138.21,0.39
		C574.41,472.76,579.59,472.41,584.82,472.23z"/>
	<path class="st5" d="M359.05,461.66c0.1-0.49,0.2-0.99,0.3-1.48c-1.25-0.54-2.46-1.36-3.76-1.56c-13.09-2.02-26.17-4.26-39.32-5.81
		c-14.66-1.74-29.39-2.95-44.1-4.18c-10.99-0.92-21.99-1.78-33-2.2c-13.9-0.53-27.83-0.69-41.74-0.81
		c-4.43-0.04-8.65,6.01-7.69,10.62c28.3,0,56.65-0.71,84.96,0.2C302.85,457.33,330.94,459.85,359.05,461.66z"/>
	<path class="st5" d="M407.57,459.51c0.03,0.43,0.06,0.85,0.08,1.28c1.23,0.23,2.48,0.7,3.7,0.65c6.99-0.26,13.98-0.54,20.96-1
		c20.25-1.35,40.47-3.36,60.74-4.04c23.82-0.8,47.67-0.49,71.51-0.6c3.51-0.02,7.02,0.5,10.51,0.37c0.92-0.03,2.6-1.62,2.54-2.38
		c-0.33-4.19-5.13-8.36-9.4-8.22c-21.43,0.68-42.88,1.16-64.28,2.3c-14.84,0.79-29.67,2.3-44.45,3.95
		c-14.9,1.66-29.75,3.86-44.61,5.92C412.41,458.08,410,458.91,407.57,459.51z"/>
	<path class="st5" d="M270.9,465.21c-26.98,0-53.96,0-80.94,0c-1.13,0-2.26,0-3.39,0.03c-3.15,0.08-3.77,2.71-4.27,4.9
		c-0.12,0.54,2.2,1.79,3.53,2.44c0.72,0.36,1.72,0.2,2.6,0.2c12.16,0,24.32,0.05,36.48-0.02c12.66-0.07,25.31-0.34,37.97-0.39
		c29.74-0.12,59.48-0.17,89.22-0.24c0.88,0,1.94,0.3,2.59-0.09c1.07-0.64,2.38-1.59,2.68-2.66c0.94-3.35-0.78-4.23-4.03-4.22
		C325.86,465.26,298.38,465.22,270.9,465.21z"/>
	<path class="st5" d="M390.79,445.56c0.11,0.61,0.48,1.16,1.08,1.29c3.68-2.45,6.4-6.06,9.22-9.45
		c15.39-18.48,36.05-32.18,58.35-41.19c26.22-10.58,53.36-12.75,80.96-16.9c1.02-0.15,2.37-1.08,2.71-1.97
		c0.27-0.72-0.51-2.25-1.28-2.84c-0.91-0.7-2.33-1.2-3.47-1.09c-10.59,1.03-21.27,1.63-31.73,3.47
		c-37.92,6.66-73.81,24.05-101.49,50.97c-2.07,2.02-4.1,4.08-6.08,6.2c-1.57,1.68-3.12,3.38-4.64,5.1c-1.15,1.3-3.17,3.86-3.61,5.57
		C390.75,444.99,390.74,445.28,390.79,445.56z"/>
	<path class="st5" d="M393.78,456.38c3.4,2.22,5.72,5.52,7.65,8.86c0.03,0.04,0.05,0.09,0.07,0.13c0.1,0.18,0.2,0.36,0.3,0.54
		c0.37,0.7,0.71,1.41,1.02,2.14c0.71,1.7,0.66,3.86-1.97,4.43c-2.57,0.55-2.71-0.89-3.36-3.1c-1.66-5.62-7.14-9.82-13.58-10.25
		c-4.93-0.33-10.44,3.28-12.35,8.16c-1.06,2.71-1.68,6.94-5.66,4.98c-3.03-1.49-0.57-4.74,0.2-6.93c1.91-5.44,7.04-9.52,12.39-11.29
		C383.62,452.34,389.41,453.52,393.78,456.38z"/>
	<path class="st5" d="M374.99,446.64c-14.17-14.56-27.78-28.09-45.29-38.72c-16.53-10.04-34.62-17.52-53.4-22.1
		c-8.5-2.08-17.15-3.56-25.85-4.42c-8.12-0.8-16.41-0.43-24.34-2.55c-0.93-0.25-2.06-2.15-1.95-3.17c0.1-0.85,1.9-2.22,2.89-2.16
		c40.5,2.19,79.72,12.9,113.46,35.97c13.04,8.92,24.26,19.47,33.54,32.3c0.84,1.16,1.37,2.55,2.04,3.84
		C375.71,445.97,375.35,446.31,374.99,446.64z"/>
</g>
<g>
	<path class="st6" d="M348.63,522.68c0.08,0.05,0.12,0.15,0.25,0.31c-1.55-0.16-2.9-0.72-4.26-1.2c-4.46-1.56-8.81-3.34-12.76-6.01
		c-4.6-3.1-8.25-7.07-10.79-11.99c-3.23-6.24-4.73-12.86-3.86-19.91c0.03-0.24,0.06-0.47,0.07-0.71c0.09-1.18,0.48-1.52,1.64-1.33
		c1.89,0.31,3.76,0.72,5.55,1.42c3.87,1.52,7.54,3.4,10.77,6.04c1.06,0.87,2.06,1.85,3.08,3.19c-1.79-0.75-3.32-1.4-4.86-2.02
		c-3.19-1.27-6.5-2.08-9.88-2.64c-0.76-0.13-1.02,0.02-0.99,0.85c0.27,8,3.02,15.03,8.35,20.96c4.16,4.63,9.37,7.93,14.61,11.17
		C346.58,521.44,347.61,522.05,348.63,522.68z"/>
	<path class="st6" d="M287.62,501.45c0.08,0.04,0.09,0.21,0.13,0.34c-0.51,0.49-1.17,0.33-1.75,0.34
		c-7.79,0.12-15.53-0.25-23.11-2.21c-10.08-2.59-18.05-11.61-17.35-23.22c0.27-4.46,0.46-8.92,1.22-13.34
		c0.1-0.59-0.06-1.34,0.72-1.56c0.84-0.24,1.19,0.46,1.59,1.01c6.31,8.55,12.97,16.82,19.99,24.81c4.92,5.61,10.73,9.95,17.41,13.19
		C286.87,501.01,287.25,501.22,287.62,501.45z"/>
	<path class="st6" d="M284.64,569.91c0.42,0.01,0.83,0.12,1.52,0.22c-1.09,0.91-2.18,1.19-3.24,1.36
		c-13.86,2.34-27.67,3.19-41.32-1.29c-6.65-2.18-12.32-6.1-17.94-10.14c-4.09-2.94-7.43-6.56-10.37-10.61
		c-0.77-1.06-0.84-1.65,0.55-2.31c6.58-3.18,13.38-5.64,20.55-7.04c0.49-0.1,1.09-0.3,1.34,0.26c0.26,0.6-0.41,0.83-0.75,1.12
		c-2.79,2.28-5.61,4.53-8.41,6.8c-0.63,0.51-1.14,0.91-0.16,1.69c9.87,7.85,20.69,13.77,33.16,16.25
		C267.87,567.86,276.16,569.54,284.64,569.91z"/>
	<path class="st6" d="M366.37,548.12c-1.17,0-1.81-0.55-2.42-0.99c-6.07-4.42-12.77-7.72-19.64-10.63
		c-6.72-2.84-13.86-4.36-21.1-5.26c-12.22-1.52-24.52-2.12-36.78-3.06c-7.07-0.54-13.7-2.84-20.23-5.5
		c-5.21-2.13-10.08-4.82-14.76-7.9c-0.51-0.34-1.12-1.16-1.74-0.67c-0.71,0.57-0.1,1.41,0.18,2.06c2.69,6.14,6.75,11.44,10.44,16.97
		c8.09,12.15,19.19,20.35,32.87,25.15c5.97,2.1,12.19,2.9,18.48,3.33c5.08,0.35,10.15,0.74,15.24,0.36
		c-12.86,3.53-25.7,4.54-38.9,1.72c-13.34-2.85-24.43-9.44-33.83-18.92c-12.31-12.42-18.45-27.62-18.97-45.1
		c-0.07-2.24-0.16-4.47,0.11-6.71c0.04-0.36,0.18-0.71,0.37-1.39c2.1,2.19,4.15,4.12,6.21,6.03c6.92,6.4,15.14,9.54,24.45,10.16
		c11.78,0.78,23.58,1.45,35.25,3.31c9.08,1.45,18.18,2.81,27.03,5.45c5.47,1.63,10.12,4.8,14.55,8.18
		c7.84,5.98,14.46,13.26,20.94,20.64C364.83,546.18,365.5,547.06,366.37,548.12z"/>
	<path class="st6" d="M372.1,553.49c-1.15,1.51-2.38,2.16-3.47,2.97c-1.09,0.81-2.21,1.61-3.38,2.32
		c-7.76,4.7-15.56,9.33-23.66,13.44c-4.85,2.46-9.96,3.81-15.33,4.33c-0.93,0.09-1.86,0.18-2.78,0.29c-0.41,0.05-0.96-0.03-1.08,0.5
		c-0.1,0.42,0.35,0.62,0.63,0.84c3.94,3.11,8.3,5.37,13.13,6.87c10.79,3.34,19.66-0.62,27.78-7.18
		c5.65-4.56,10.03-10.33,14.19-16.25c0.24-0.34,0.51-0.67,1.01-1.33c1.06,6.28-0.27,11.66-3.53,16.54
		c-4.35,6.51-9.42,12.32-16.27,16.4c-4.86,2.89-10.22,4.17-15.65,5.18c-11.65,2.16-22.12-1.31-32-7.16
		c-3.54-2.09-6.34-5.02-8.34-8.62c-1.6-2.87-2.98-5.87-4.49-8.79c-0.68-1.31-0.31-1.81,1.13-1.81c3.54,0,7.09-0.01,10.63-0.1
		c10.23-0.27,20.04-2.69,29.72-5.8c10.31-3.31,20.34-7.34,30.15-11.92C370.86,554.04,371.26,553.87,372.1,553.49z"/>
	<path class="st6" d="M467.32,571.55c0.67,0.92-0.38,2.01-0.94,2.8c-4.85,6.85-9.58,13.9-16.81,18.51
		c-7.07,4.5-14.88,6.81-23.36,6.46c-3.54-0.15-7.1-0.06-10.59-0.71c-8.75-1.6-15.67-6.36-21.61-12.73
		c-3.79-4.06-6.5-8.78-7.91-14.18c-1.02-3.91-0.35-7.77,0.43-11.8c0.95,0.35,1.63,0.88,1.94,1.6c2.28,5.31,6.65,8.9,10.43,13.01
		c6.43,7,14.33,9.82,23.75,9.3c5.91-0.32,11.64-0.99,16.89-3.93c0.52-0.29,1.41-0.4,1.3-1.12c-0.1-0.67-0.97-0.68-1.56-0.79
		c-11.59-2.12-21.86-7.19-31.46-13.87c-4.3-2.99-8.41-6.18-12.22-9.76c-0.31-0.29-0.74-0.5-0.69-1.36c2.09,0.75,4.12,1.41,6.09,2.21
		c9.33,3.77,18.45,8.09,27.96,11.42c11.5,4.02,23.25,6.41,35.52,4.7C465.43,571.18,466.8,570.84,467.32,571.55z"/>
	<path class="st6" d="M481.15,570.78c-0.34-0.1-0.67-0.24-1.01-0.37c0.01-0.17,0.01-0.34,0.02-0.5c2.52-0.18,5.04-0.4,7.56-0.54
		c10.93-0.6,21.57-2.72,31.92-6.26c5.6-1.91,10.25-5.56,15.17-8.7c2.16-1.38,3.99-3.16,5.89-4.86c1.12-1,1.06-1.78-0.09-2.69
		c-2.87-2.28-5.7-4.62-8.54-6.93c-0.47-0.38-1.04-0.69-1.33-1.46c0.68-0.27,1.27-0.03,1.89,0.15c6.96,2.05,13.28,5.58,19.84,8.56
		c1,0.45,1.55,0.97,0.63,2.09c-3.97,4.86-7.91,9.73-12.77,13.79c-8.33,6.95-18.15,10.12-28.69,10.67
		C501.39,574.27,491.11,573.84,481.15,570.78z"/>
	<path class="st6" d="M535.43,488.85c0.86,0.31,0.47,1.43,0.43,2.18c-0.69,14.4-4.14,27.95-11.98,40.24
		c-6.39,10.01-14.32,18.5-24.39,24.76c-9.43,5.87-19.72,9.2-30.98,9.63c-6.89,0.26-13.65,0-20.36-1.54c-0.3-0.07-0.61-0.14-0.9-0.24
		c-0.1-0.03-0.16-0.16-0.37-0.39c3.65-0.4,7.18-0.86,10.72-1.16c12.54-1.08,23.76-5.67,33.94-12.87c4.19-2.96,7.41-6.97,10.61-10.95
		c4.51-5.61,7.91-11.9,11.39-18.14c0.72-1.3,1.69-2.47,2.06-3.96c0.09-0.35,0.26-0.75-0.15-1c-0.34-0.21-0.55,0.15-0.79,0.31
		c-9.83,6.62-20.91,9.83-32.37,12.21c-11.31,2.35-22.76,3.08-34.25,3.52c-15.09,0.59-29.08,4.9-42.08,12.54
		c-1.53,0.9-3.08,1.76-4.62,2.64c-0.11-0.13-0.22-0.25-0.32-0.37c3.03-3.91,6.18-7.71,9.73-11.19c7.95-7.79,17.66-12.8,27.49-17.62
		c7.3-3.58,15.21-4.77,23.16-5.96c11.71-1.75,23.55-1.68,35.28-3.01c6.34-0.71,12.6-1.85,18.39-4.5c7.17-3.28,13.54-7.8,18.81-13.76
		C534.36,489.71,534.67,488.57,535.43,488.85z"/>
	<path class="st6" d="M524.35,462.35c0.06,4.27,0.77,8.52-0.01,12.82c-0.54,2.98-0.18,6.06-0.58,9.1
		c-0.97,7.26-5.4,11.66-11.59,14.85c-6.67,3.44-13.8,3.69-21.05,3.52c-3.54-0.09-7.08-0.02-10.61-0.04c-0.59,0-1.22,0.22-1.85-0.25
		c1.66-2.14,4.26-2.67,6.43-3.84c7.42-3.98,14.47-8.41,20.31-14.61c6.41-6.8,11.99-14.23,17.25-21.92c0.29-0.43,0.4-1.23,1.1-1.06
		C524.36,461.08,524.34,461.83,524.35,462.35z"/>
	<path class="st6" d="M419.5,523.36c2.02-1.3,4.27-2.07,6.25-3.35c4.39-2.83,8.92-5.47,12.72-9.1c3.75-3.58,6.44-7.9,7.87-12.89
		c0.75-2.62,1.14-5.34,1.13-8.1c0-0.81-0.27-1-1.07-1.04c-4.2-0.23-8.12,0.88-11.97,2.35c-0.3,0.11-0.58,0.36-1.02,0.2
		c1.63-1.79,3.68-2.85,5.77-3.85c3.82-1.82,7.66-3.62,11.64-5.08c0.35-0.13,0.7-0.27,1.06-0.37c1.64-0.49,1.65-0.48,1.91,1.28
		c1.42,9.5-0.87,17.88-7.55,24.93c-4.1,4.33-8.98,7.52-14.29,10.17c-3.93,1.96-8.01,3.48-12.17,4.83
		C419.7,523.37,419.59,523.36,419.5,523.36z"/>
	<g>
		<path class="st6" d="M407.77,531.47c-0.09,0.06-0.18,0.11-0.28,0.14c-0.06,0.01-0.13-0.03-0.38-0.08
			c1.47-1.93,2.88-3.81,4.32-5.67c3.1-4.01,6.05-8.13,8.05-12.82c1.56-3.67,2.54-7.53,2.9-11.48c0.34-3.77-0.55-7.39-2.14-10.81
			c-1.74-3.77-3.82-7.34-6.32-10.67c-0.4-0.54-0.87-1.02-1.32-1.52c-1.4-1.54-1.42-1.57-3.29-0.58c-2.5,1.32-4.96,2.72-7.51,4.41
			c0.68-2.19,1.88-3.78,3.03-5.38c2.09-2.94,4.23-5.84,6.81-8.38c0.51-0.51,0.97-0.57,1.46-0.17c2.59,2.08,5.48,3.85,7.24,6.79
			c2.7,4.5,5.06,9.15,6.27,14.33c0.75,3.19,1.25,6.4,1.33,9.66c0.1,4.35-0.89,8.51-2.62,12.47
			C421.6,520.18,415.61,526.65,407.77,531.47z"/>
		<path class="st6" d="M411.35,505.85c0.97,5.9,0.05,11.67-2.69,17.02c-3.14,6.13-6.92,11.85-11.48,17.03
			c-1.36,1.54-2.91,2.86-4.5,4.17c0.59-1.06,1.46-1.91,2.18-2.87c1.91-2.58,3.14-5.53,4.62-8.33c3.05-5.76,3.99-11.97,3.84-18.39
			c-0.07-3-0.83-5.87-2.06-8.61c-2.08-4.63-5.02-8.69-8.37-12.47c-2.33-2.62-4.79-5.11-7.35-7.51c-0.59-0.56-1.02-0.57-1.6-0.04
			c-3.89,3.55-8.02,6.86-11.51,10.81c-5.27,5.98-8.47,12.9-8.36,21.01c0.09,6.11,1.72,11.83,4.73,17.21c2.23,4,4.95,7.57,8.05,10.89
			c0.07,0.08,0.13,0.16,0.19,0.25c-4.14-2.83-7.48-6.43-10.27-10.56c-1.76-2.61-3.78-5.06-5.19-7.88c-1.5-2.99-3.45-5.82-3.99-9.21
			c-0.67-4.23-1.16-8.5-0.4-12.77c0.5-2.78,1.65-5.37,3.12-7.74c2.57-4.15,5.34-8.19,8.92-11.56c3.52-3.32,7.35-6.29,11.17-9.26
			c1.2-0.93,2.44-1.81,3.61-2.78c0.48-0.4,0.82-0.37,1.31-0.08c2.77,1.66,5.4,3.5,7.86,5.59c3.73,3.16,7.59,6.19,10.52,10.14
			C407.27,494.73,410.36,499.86,411.35,505.85z"/>
		<path class="st6" d="M367.04,482.38c-2.33-0.87-4.35-2.24-6.48-3.41c-3.04-1.67-2.14-1.93-4.61,0.64
			c-4.35,4.52-7.49,9.81-9.35,15.74c-2.58,8.23-1.1,15.94,3.83,22.99c1.79,2.55,3.67,5.03,5.35,7.65c0.97,1.51,2.2,2.85,3.29,4.29
			c0.24,0.32,0.58,0.61,0.58,1.19c-1.49-0.67-2.64-1.71-3.83-2.66c-4.48-3.59-8.31-7.73-11-12.9c-1.63-3.12-3.18-6.2-3.82-9.71
			c-0.89-4.89-0.66-9.68,0.62-14.48c2.15-8.06,5.94-15.24,11.35-21.57c0.64-0.75,1.33-1.47,2.13-2.06c0.28-0.21,0.46-0.37,0.79-0.06
			C360.35,472.22,364.16,476.93,367.04,482.38z"/>
	</g>
	<path class="st6" d="M322.49,508.4c0.05,0.03,0.06,0.13,0.09,0.22c-0.33,0.32-0.77,0.22-1.15,0.22
		c-5.11,0.08-10.19-0.17-15.17-1.45c-6.62-1.7-11.85-7.62-11.38-15.24c0.18-2.93,0.3-5.86,0.8-8.75c0.07-0.39-0.04-0.88,0.47-1.02
		c0.55-0.15,0.78,0.3,1.05,0.66c4.14,5.61,8.51,11.04,13.12,16.28c3.23,3.68,7.04,6.53,11.42,8.66
		C322,508.11,322.25,508.25,322.49,508.4z"/>
	<path class="st6" d="M477.85,482.74c0.04,2.8,0.5,5.59-0.01,8.42c-0.36,1.96-0.12,3.98-0.38,5.97c-0.63,4.76-3.54,7.65-7.6,9.75
		c-4.38,2.26-9.06,2.42-13.81,2.31c-2.32-0.06-4.64-0.01-6.97-0.03c-0.38,0-0.8,0.15-1.21-0.16c1.09-1.4,2.79-1.75,4.22-2.52
		c4.87-2.61,9.5-5.52,13.33-9.59c4.21-4.46,7.87-9.34,11.32-14.38c0.19-0.28,0.26-0.81,0.72-0.7
		C477.86,481.91,477.85,482.4,477.85,482.74z"/>
</g>
<path class="st7" d="M705.28,394.83c0,177.22-143.68,320.89-320.9,320.89S63.5,572.05,63.5,394.83l38.9,31.18l38.89-31.18
	c0,134.25,108.85,243.09,243.1,243.09c134.27,0,243.1-108.84,243.1-243.09l38.9,31.18L705.28,394.83z"/>
<g>
	<g>
		<path class="st5" d="M384.39,745.84c-93.76,0-181.91-36.51-248.21-102.81c-66.3-66.3-102.81-154.45-102.81-248.21
			c0-93.76,36.51-181.91,102.81-248.21S290.63,43.81,384.39,43.81S566.3,80.32,632.6,146.62c66.3,66.3,102.81,154.45,102.81,248.21
			c0,93.76-36.51,181.91-102.81,248.21C566.3,709.32,478.15,745.84,384.39,745.84z M384.39,59.33c-184.99,0-335.5,150.5-335.5,335.5
			s150.5,335.5,335.5,335.5c184.99,0,335.5-150.5,335.5-335.5S569.38,59.33,384.39,59.33z"/>
		<path class="st5" d="M384.39,751.34c-95.23,0-184.76-37.08-252.09-104.42C64.96,579.58,27.88,490.05,27.88,394.82
			c0-95.23,37.08-184.76,104.42-252.09S289.16,38.31,384.39,38.31s184.76,37.08,252.09,104.42
			c67.34,67.34,104.42,156.87,104.42,252.09c0,95.23-37.08,184.76-104.42,252.09S479.62,751.34,384.39,751.34z M384.39,49.31
			c-92.29,0-179.06,35.94-244.32,101.2c-65.26,65.26-101.2,152.03-101.2,244.32c0,92.29,35.94,179.06,101.2,244.32
			c65.26,65.26,152.03,101.2,244.32,101.2c92.29,0,179.06-35.94,244.32-101.2c65.26-65.26,101.2-152.03,101.2-244.32
			s-35.94-179.06-101.2-244.32C563.45,85.25,476.68,49.31,384.39,49.31z M384.39,735.82c-188.03,0-341-152.97-341-340.99
			c0-188.03,152.97-341,341-341c188.03,0,341,152.97,341,341C725.39,582.85,572.42,735.82,384.39,735.82z M384.39,64.83
			c-181.96,0-330,148.04-330,330c0,181.96,148.04,329.99,330,329.99c181.96,0,330-148.04,330-329.99
			C714.39,212.86,566.35,64.83,384.39,64.83z"/>
	</g>
</g>
<g>
	<g>
		<path class="st8" d="M131.11,437.79l1.88,8.06l-49.06,11.42l-1.88-8.06L131.11,437.79z M110.6,446.12l5.7,24.46l-7.69,1.79
			l-5.7-24.46L110.6,446.12z M131.89,441.16l6.56,28.17l-7.73,1.8l-6.56-28.17L131.89,441.16z"/>
		<path class="st8" d="M100.42,505.85c0.32-3.11,1.47-5.92,3.44-8.41c1.97-2.5,4.66-4.48,8.05-5.95l13.09-5.69
			c3.39-1.47,6.67-2.08,9.84-1.82s6,1.33,8.5,3.22c2.49,1.89,4.46,4.47,5.88,7.75s1.98,6.48,1.66,9.59
			c-0.32,3.11-1.47,5.91-3.44,8.41c-1.98,2.5-4.66,4.48-8.05,5.95l-13.09,5.69c-3.39,1.47-6.67,2.08-9.84,1.82s-6.01-1.33-8.5-3.22
			c-2.5-1.89-4.46-4.47-5.88-7.75C100.66,512.16,100.1,508.96,100.42,505.85z M112.75,516.26c1.34,0.99,2.87,1.54,4.59,1.65
			c1.72,0.11,3.5-0.24,5.35-1.04l13.53-5.88c1.84-0.8,3.31-1.87,4.41-3.2c1.09-1.33,1.74-2.83,1.92-4.48s-0.1-3.35-0.85-5.09
			c-0.76-1.74-1.8-3.1-3.14-4.09s-2.87-1.54-4.59-1.65c-1.72-0.11-3.5,0.24-5.35,1.04l-13.53,5.88c-1.84,0.8-3.31,1.87-4.41,3.2
			c-1.1,1.33-1.74,2.83-1.92,4.48c-0.19,1.65,0.1,3.35,0.85,5.09C110.37,513.9,111.41,515.27,112.75,516.26z"/>
		<path class="st8" d="M127.26,562c0,0-0.13-1.54-0.4-4.61c-0.26-3.08,0.36-6,1.88-8.78c1.52-2.78,3.87-5.25,7.06-7.43l11.42-7.78
			c3.19-2.17,6.35-3.45,9.49-3.85c3.14-0.39,6.1,0.09,8.87,1.46c2.77,1.37,5.19,3.56,7.24,6.57c1.7,2.5,2.71,5.13,3.03,7.89
			c0.31,2.76-0.08,5.5-1.17,8.22c-1.1,2.72-2.85,5.26-5.26,7.63l-4.8-7.04c1.1-1.25,1.9-2.59,2.4-4.02c0.5-1.43,0.66-2.83,0.5-4.22
			c-0.16-1.38-0.65-2.67-1.45-3.85c-1.08-1.58-2.37-2.71-3.87-3.38c-1.5-0.67-3.13-0.87-4.87-0.6c-1.75,0.27-3.52,1.01-5.31,2.23
			l-11.42,7.78c-1.79,1.22-3.14,2.6-4.02,4.12c-0.89,1.53-1.29,3.11-1.21,4.74c0.08,1.64,0.66,3.25,1.74,4.83
			c0.82,1.2,1.83,2.14,3.04,2.81c1.21,0.67,2.57,1.04,4.07,1.11c1.5,0.07,3.06-0.21,4.67-0.83l4.8,7.04
			c-3.1,1.36-6.11,2.05-9.04,2.07c-2.93,0.03-5.62-0.61-8.08-1.92c-2.45-1.3-4.53-3.2-6.21-5.68C128.29,563.5,127.26,562,127.26,562
			z"/>
		<path class="st8" d="M161.54,602.06c-0.88-2.95-0.82-5.91,0.17-8.89c0.99-2.98,2.88-5.87,5.67-8.66l22.72-22.74l5.86,5.85
			l-22.89,22.91c-2.32,2.32-3.51,4.72-3.59,7.19c-0.07,2.47,0.99,4.8,3.17,6.99c2.21,2.2,4.55,3.27,7.03,3.21
			c2.48-0.07,4.88-1.26,7.2-3.58l22.89-22.91l5.86,5.85l-22.72,22.74c-2.79,2.79-5.68,4.68-8.67,5.66c-2.99,0.98-5.96,1.04-8.9,0.16
			c-2.95-0.87-5.77-2.66-8.46-5.35C164.19,607.82,162.42,605.01,161.54,602.06z"/>
		<path class="st8" d="M208.06,645.08c0,0-0.79-0.82-2.36-2.47s-2.91-3.4-4-5.26c-1.09-1.86-1.93-3.81-2.49-5.85l7.36-2.99
			c0.68,2.45,1.78,4.7,3.3,6.75c1.52,2.05,3.4,3.84,5.63,5.36c2.79,1.9,5.29,2.87,7.5,2.93c2.21,0.05,3.94-0.83,5.17-2.64l0.02-0.03
			c0.87-1.28,1.22-2.53,1.04-3.75c-0.17-1.22-0.69-2.39-1.56-3.49c-0.87-1.11-2.07-2.41-3.59-3.89c-0.04-0.06-0.1-0.11-0.15-0.15
			c-0.06-0.04-0.11-0.09-0.15-0.15l-0.46-0.44c-2.48-2.36-4.4-4.46-5.76-6.31c-1.37-1.85-2.13-4.02-2.28-6.5
			c-0.16-2.48,0.78-5.21,2.81-8.19l0.02-0.03c1.79-2.63,3.92-4.48,6.38-5.55c2.46-1.07,5.14-1.32,8.06-0.76s5.96,1.92,9.13,4.08
			c1.49,1.01,2.87,2.2,4.14,3.55s2.41,2.84,3.42,4.46c1.01,1.62,1.86,3.37,2.57,5.25l-7.16,3.38c-0.82-2.24-1.87-4.22-3.12-5.94
			c-1.26-1.72-2.68-3.12-4.26-4.2c-2.63-1.79-5-2.7-7.1-2.72c-2.1-0.02-3.74,0.85-4.94,2.61l-0.02,0.03
			c-0.9,1.32-1.23,2.61-1.01,3.88c0.22,1.27,0.77,2.46,1.65,3.58c0.88,1.11,2.18,2.55,3.91,4.32c0.06,0.07,0.13,0.13,0.19,0.19
			c0.06,0.06,0.12,0.12,0.19,0.19c0.08,0.08,0.17,0.17,0.28,0.27c0.1,0.1,0.19,0.19,0.28,0.27c2.23,2.27,3.96,4.36,5.19,6.26
			c1.23,1.9,1.89,4.05,1.96,6.45c0.07,2.4-0.83,4.98-2.72,7.75l-0.04,0.06c-1.77,2.6-3.89,4.41-6.37,5.43
			c-2.48,1.02-5.22,1.22-8.2,0.6c-2.99-0.62-6.12-2.05-9.4-4.28C209.06,645.77,208.06,645.08,208.06,645.08z"/>
		<path class="st8" d="M289.18,631.89l7.85,2.63l-15.97,47.77l-7.85-2.63L289.18,631.89z M279.4,673.37l27.66,9.25l-2.52,7.52
			l-27.66-9.25L279.4,673.37z"/>
		<path class="st8" d="M331.55,644.7l8.19,1.2l-7.32,49.83l-8.19-1.2L331.55,644.7z M328.77,687.19l29.3,4.31l-1.15,7.85l-29.3-4.31
			L328.77,687.19z M331.83,666.38l25.53,3.75l-1.15,7.81l-25.53-3.75L331.83,666.38z M334.94,645.2l29.3,4.31l-1.15,7.85l-29.3-4.31
			L334.94,645.2z"/>
		<path class="st8" d="M391.12,649.6l6.02-0.22l20.77,49.63l-8.9,0.33l-14.41-37.01l-11.62,37.97l-8.9,0.33L391.12,649.6z
			 M382.34,682.83l26.48-0.99l0.29,7.93l-26.48,0.99L382.34,682.83z"/>
		<path class="st8" d="M426.13,646.86l8.06-1.88l11.44,49.09l-8.06,1.88L426.13,646.86z M434.39,667.2l16.9-3.94
			c1.12-0.26,2.05-0.77,2.79-1.52c0.74-0.75,1.22-1.69,1.46-2.81s0.21-2.36-0.08-3.72c-0.31-1.33-0.82-2.44-1.53-3.34
			c-0.71-0.9-1.56-1.53-2.55-1.88c-0.99-0.35-2.07-0.39-3.21-0.12l-16.9,3.94l-1.8-7.73l17.14-3.99c2.77-0.64,5.33-0.61,7.7,0.09
			c2.37,0.71,4.39,2.01,6.05,3.92c1.67,1.91,2.83,4.3,3.5,7.15c0.67,2.88,0.68,5.54,0.03,8c-0.65,2.45-1.89,4.52-3.71,6.2
			c-1.83,1.68-4.11,2.84-6.85,3.48l-17.14,3.99L434.39,667.2z M447.68,670.65l8-3.5L474,687.46l-9.68,2.26L447.68,670.65z"/>
		<path class="st8" d="M473.81,634.43l8.19-3.75l35.84,26.24l-0.38,1.17l-16.49-36.07l7.31-3.34l20.93,45.78l-8.25,3.77
			l-35.53-25.73l0.38-1.17l16.25,35.54l-7.31,3.34L473.81,634.43z"/>
		<path class="st8" d="M582.71,590.69l6.16,6.99c2.47,2.81,4.09,5.77,4.86,8.9c0.77,3.13,0.65,6.17-0.35,9.13
			c-1.01,2.96-2.85,5.63-5.54,8c-2.7,2.38-5.57,3.93-8.6,4.65c-3.03,0.72-6,0.57-8.91-0.44c-2.91-1.01-5.53-2.84-7.86-5.49
			l-9.83-11.15c-2.47-2.81-4.09-5.77-4.85-8.88s-0.64-6.16,0.37-9.12c1-2.96,2.85-5.63,5.54-8c2.2-1.94,4.64-3.27,7.33-3.99
			c2.69-0.72,5.4-0.78,8.15-0.19s5.33,1.82,7.75,3.65l-6.71,5.91c-1.21-0.78-2.48-1.25-3.8-1.41c-1.32-0.16-2.61-0.03-3.87,0.38
			c-1.25,0.41-2.37,1.04-3.33,1.9c-1.42,1.25-2.38,2.67-2.87,4.26s-0.51,3.24-0.05,4.94c0.46,1.71,1.37,3.34,2.75,4.9l9.83,11.15
			c1.24,1.4,2.62,2.38,4.16,2.91c1.54,0.54,3.11,0.61,4.72,0.22c1.61-0.39,3.14-1.22,4.57-2.49c1.42-1.25,2.4-2.66,2.93-4.22
			c0.53-1.56,0.57-3.18,0.12-4.86c-0.45-1.68-1.39-3.33-2.81-4.94l-1.01-1.14l-6.71,5.91l-5.25-5.95L582.71,590.69z"/>
		<path class="st8" d="M577.19,563.33l5.06-6.55l39.89,30.81l-5.06,6.55L577.19,563.33z M596.45,573.87l10.61-13.73
			c0.71-0.91,1.11-1.9,1.2-2.95c0.1-1.05-0.12-2.08-0.64-3.1c-0.53-1.02-1.33-1.96-2.41-2.83c-1.08-0.83-2.18-1.38-3.3-1.63
			c-1.12-0.25-2.17-0.2-3.17,0.16c-0.99,0.36-1.85,1-2.57,1.94l-10.61,13.73l-6.28-4.85l10.76-13.93c1.74-2.25,3.75-3.85,6.03-4.8
			c2.28-0.95,4.67-1.21,7.17-0.79c2.5,0.43,4.91,1.54,7.23,3.33c2.34,1.81,4.03,3.87,5.08,6.18c1.05,2.31,1.39,4.7,1.04,7.15
			c-0.35,2.46-1.39,4.8-3.11,7.03l-10.76,13.93L596.45,573.87z M608.93,568.14l3.99-7.77l27.03,4.16l-6.08,7.87L608.93,568.14z"/>
		<path class="st8" d="M653.09,538.42c-2.6,1.74-5.49,2.66-8.67,2.74c-3.18,0.08-6.42-0.71-9.72-2.37l-12.75-6.42
			c-3.3-1.66-5.87-3.79-7.7-6.39c-1.83-2.6-2.82-5.47-2.97-8.59c-0.15-3.12,0.58-6.29,2.19-9.48c1.61-3.2,3.71-5.67,6.31-7.41
			c2.6-1.74,5.49-2.66,8.67-2.74c3.18-0.08,6.42,0.71,9.72,2.37l12.75,6.42c3.3,1.66,5.87,3.79,7.7,6.4
			c1.83,2.6,2.82,5.47,2.97,8.59c0.15,3.13-0.58,6.29-2.19,9.48C657.79,534.21,655.69,536.68,653.09,538.42z M653.2,522.29
			c-0.09-1.66-0.65-3.19-1.67-4.58c-1.02-1.39-2.43-2.54-4.22-3.44l-13.18-6.63c-1.79-0.9-3.55-1.35-5.28-1.34s-3.28,0.47-4.67,1.39
			c-1.39,0.92-2.51,2.22-3.36,3.91c-0.85,1.69-1.23,3.37-1.14,5.03c0.09,1.66,0.65,3.19,1.67,4.58c1.02,1.39,2.43,2.54,4.22,3.44
			l13.18,6.63c1.79,0.9,3.55,1.35,5.28,1.34c1.73-0.01,3.28-0.47,4.67-1.39c1.39-0.92,2.51-2.22,3.36-3.91
			C652.92,525.63,653.3,523.95,653.2,522.29z"/>
		<path class="st8" d="M632.55,459.29l1.53-6.04l37.88-0.68l-33.53-16.45l2.11-8.29l45.88,23.98l-1.99,7.82l-36.36,0.17l31.77,17.89
			l-1.99,7.82l-51.76-0.81l2.11-8.29l37.32,1.54L632.55,459.29z"/>
	</g>
</g>
<g>
	<g>
		<path class="st9" d="M204.37,211.95l-7.63,8.02l-41.06-39.05l7.63-8.02L204.37,211.95z"/>
		<path class="st9" d="M171.22,164.27l32.07-26.41l6.54,7.94l-32.07,26.41L171.22,164.27z M186.08,158.04l8.24-6.79l33.07,40.16
			l-8.24,6.79L186.08,158.04z"/>
		<path class="st9" d="M286.36,121.88l4.54,10.09c1.73,3.84,2.47,7.57,2.24,11.19c-0.24,3.63-1.42,6.88-3.54,9.75
			c-2.12,2.88-5.06,5.16-8.8,6.84c-3.77,1.69-7.43,2.44-10.98,2.23c-3.56-0.21-6.74-1.33-9.55-3.37c-2.81-2.04-5.03-4.87-6.66-8.5
			l-6.86-15.25c-1.73-3.84-2.47-7.56-2.23-11.18c0.24-3.61,1.42-6.86,3.55-9.74c2.12-2.88,5.06-5.16,8.8-6.84
			c3.08-1.39,6.21-2.03,9.39-1.94c3.18,0.1,6.16,0.91,8.94,2.45c2.79,1.54,5.17,3.7,7.17,6.48l-10.52,4.73
			c-0.85-0.93-1.86-1.61-3.03-2.03c-1.17-0.43-2.41-0.6-3.69-0.52c-1.29,0.08-2.52,0.39-3.71,0.92c-1.73,0.78-3.08,1.84-4.06,3.19
			c-0.97,1.35-1.51,2.89-1.6,4.61c-0.09,1.72,0.27,3.5,1.09,5.32l6.86,15.25c0.72,1.61,1.73,2.87,3.02,3.77
			c1.29,0.9,2.76,1.38,4.41,1.44c1.65,0.06,3.36-0.32,5.14-1.12c1.75-0.79,3.13-1.84,4.11-3.15c0.99-1.31,1.53-2.82,1.62-4.51
			c0.09-1.69-0.28-3.48-1.12-5.35l-0.38-0.85l-7.82,3.52l-4.22-9.38L286.36,121.88z"/>
		<path class="st9" d="M316.98,143.91c-3.38-0.93-6.2-2.76-8.47-5.48c-2.27-2.73-3.89-6.26-4.86-10.59l-7.95-35.28l10.42-2.35
			l8.01,35.55c0.71,3.17,2.12,5.44,4.21,6.8c2.09,1.37,4.68,1.7,7.78,1c3.12-0.7,5.33-2.12,6.65-4.26c1.32-2.13,1.62-4.79,0.9-7.95
			l-8.01-35.55l10.42-2.35l7.95,35.28c0.98,4.33,1.02,8.22,0.13,11.66c-0.89,3.44-2.67,6.3-5.33,8.59
			c-2.67,2.29-6.13,3.92-10.39,4.88C324.18,144.83,320.36,144.84,316.98,143.91z"/>
		<path class="st9" d="M357.68,80.89l10.68-0.23l1.25,56.69l-10.68,0.23L357.68,80.89z M362.44,104.41l19.71-0.43
			c1.09-0.02,2.05-0.32,2.87-0.88c0.82-0.56,1.44-1.36,1.88-2.38c0.43-1.02,0.65-2.2,0.64-3.52c-0.03-1.32-0.28-2.49-0.76-3.49
			c-0.48-1-1.14-1.77-1.98-2.3c-0.84-0.53-1.82-0.78-2.94-0.75l-19.71,0.43l-0.23-10.29l20.57-0.45c3.12-0.07,5.87,0.57,8.27,1.92
			c2.39,1.35,4.27,3.29,5.62,5.82c1.35,2.53,2.07,5.48,2.14,8.86c0.07,3.38-0.51,6.36-1.75,8.95c-1.24,2.59-3.04,4.61-5.38,6.06
			c-2.35,1.45-5.06,2.22-8.16,2.28l-20.57,0.45L362.44,104.41z M374.55,112.68l11.38-2.04l15.85,26l-12.94,0.28L374.55,112.68z"/>
		<path class="st9" d="M418.61,137.21c-2.75-2.17-4.65-4.95-5.68-8.34c-1.03-3.39-1.16-7.27-0.37-11.65l6.36-35.6l10.51,1.88
			l-6.41,35.87c-0.57,3.2-0.16,5.83,1.24,7.9c1.4,2.07,3.66,3.39,6.78,3.94c3.15,0.56,5.74,0.11,7.78-1.34
			c2.04-1.46,3.35-3.78,3.92-6.98l6.41-35.87l10.51,1.88l-6.36,35.6c-0.78,4.37-2.25,7.97-4.4,10.79c-2.15,2.82-4.9,4.77-8.25,5.85
			s-7.17,1.23-11.46,0.47S421.36,139.38,418.61,137.21z"/>
		<path class="st9" d="M480.56,94.98l9.93,3.93l-20.86,52.69l-9.93-3.93L480.56,94.98z M473.83,129.45l33.83-23.74l12.5,4.95
			l-50.17,32.19L473.83,129.45z M485.01,126.83l10.69-2.01l5.82,39.4l-11.78-4.66L485.01,126.83z"/>
		<path class="st9" d="M514.03,170.18c-1.69-3.07-2.36-6.36-1.99-9.89c0.37-3.52,1.76-7.15,4.19-10.87l19.71-30.32l8.95,5.82
			l-19.86,30.55c-1.77,2.72-2.41,5.31-1.93,7.76c0.48,2.45,2.05,4.54,4.71,6.27c2.68,1.74,5.24,2.34,7.69,1.79s4.56-2.18,6.33-4.91
			l19.86-30.55l8.95,5.82l-19.71,30.32c-2.42,3.73-5.17,6.47-8.25,8.23c-3.08,1.76-6.37,2.49-9.88,2.18
			c-3.5-0.31-7.08-1.65-10.74-4.03C518.4,175.97,515.73,173.25,514.03,170.18z"/>
		<path class="st9" d="M587.21,155.28l7.71,7.39l-39.23,40.89l-7.71-7.39L587.21,155.28z M558.53,192.03l23.96,22.99l-7.12,7.42
			l-23.96-22.99L558.53,192.03z"/>
	</g>
</g>
<g>
	<polygon class="st10" points="105.08,329.38 113.34,346.12 131.81,348.81 118.44,361.83 121.6,380.23 105.08,371.55 88.55,380.23 
		91.71,361.83 78.34,348.81 96.82,346.12 	"/>
	<polygon class="st11" points="105.08,329.01 111.52,348.83 132.36,348.83 115.5,361.08 121.94,380.9 105.08,368.65 88.22,380.9 
		94.66,361.08 77.8,348.83 98.64,348.83 	"/>
</g>
<g>
	<polygon class="st10" points="116.87,264.22 125.13,280.96 143.6,283.65 130.24,296.68 133.39,315.08 116.87,306.39 100.35,315.08 
		103.5,296.68 90.13,283.65 108.61,280.96 	"/>
	<polygon class="st11" points="116.87,263.71 123.31,283.53 144.15,283.53 127.29,295.78 133.73,315.6 116.87,303.35 100.01,315.6 
		106.45,295.78 89.59,283.53 110.43,283.53 	"/>
</g>
<polygon class="st10" points="147.94,208.94 156.2,225.68 174.67,228.36 161.3,241.39 164.46,259.79 147.94,251.1 131.42,259.79 
	134.57,241.39 121.2,228.36 139.68,225.68 "/>
<polygon class="st11" points="147.94,208.42 154.38,228.24 175.22,228.24 158.36,240.49 164.8,260.31 147.94,248.06 131.08,260.31 
	137.52,240.49 120.66,228.24 141.5,228.24 "/>
<g>
	<polygon class="st10" points="621.95,208.94 630.21,225.68 648.68,228.36 635.31,241.39 638.47,259.79 621.95,251.1 605.42,259.79 
		608.58,241.39 595.21,228.36 613.68,225.68 	"/>
	<polygon class="st11" points="621.64,208.42 628.08,228.24 648.92,228.24 632.06,240.49 638.5,260.31 621.64,248.06 604.78,260.31 
		611.22,240.49 594.36,228.24 615.2,228.24 	"/>
</g>
<g>
	<polygon class="st10" points="648.38,264.22 656.64,280.96 675.11,283.65 661.74,296.68 664.9,315.08 648.38,306.39 631.85,315.08 
		635.01,296.68 621.64,283.65 640.11,280.96 	"/>
	<polygon class="st11" points="647.83,263.71 654.27,283.53 675.11,283.53 658.25,295.78 664.69,315.6 647.83,303.35 630.97,315.6 
		637.41,295.78 620.55,283.53 641.39,283.53 	"/>
</g>
<g>
	<polygon class="st10" points="664.31,329.38 672.57,346.12 691.05,348.81 677.68,361.83 680.84,380.23 664.31,371.55 
		647.79,380.23 650.95,361.83 637.58,348.81 656.05,346.12 	"/>
	<polygon class="st11" points="663.77,328.86 670.21,348.68 691.05,348.68 674.19,360.93 680.63,380.75 663.77,368.5 646.91,380.75 
		653.35,360.93 636.49,348.68 657.33,348.68 	"/>
</g>
<g>
	<polygon class="st12" points="384.89,43.82 386.73,49.46 392.66,49.46 387.86,52.95 389.69,58.59 384.89,55.11 380.09,58.59 
		381.93,52.95 377.13,49.46 383.06,49.46 	"/>
	<polygon class="st12" points="383.89,745.09 385.72,739.45 391.65,739.45 386.85,735.96 388.69,730.32 383.89,733.8 379.09,730.32 
		380.92,735.96 376.12,739.45 382.05,739.45 	"/>
</g>
<g>
	<polygon class="st12" points="354.33,45.11 356.65,50.57 362.56,50.05 358.08,53.95 360.4,59.41 355.31,56.35 350.84,60.25 
		352.17,54.46 347.09,51.41 353,50.89 	"/>
	<polygon class="st12" points="414.45,743.8 415.78,738.02 421.7,737.5 416.61,734.45 417.94,728.66 413.47,732.56 408.38,729.5 
		410.7,734.96 406.22,738.86 412.13,738.34 	"/>
</g>
<g>
	<polygon class="st12" points="324,49.06 326.78,54.3 332.63,53.27 328.5,57.54 331.29,62.77 325.96,60.17 321.84,64.44 
		322.66,58.57 317.33,55.97 323.17,54.94 	"/>
	<polygon class="st12" points="444.78,739.85 445.61,733.98 451.45,732.94 446.12,730.34 446.94,724.47 442.82,728.74 
		437.49,726.14 440.28,731.37 436.15,735.64 442,734.61 	"/>
</g>
<g>
	<polygon class="st12" points="294.12,55.64 297.36,60.61 303.09,59.08 299.35,63.69 302.58,68.67 297.05,66.54 293.31,71.15 
		293.62,65.22 288.08,63.1 293.81,61.56 	"/>
	<polygon class="st12" points="474.66,733.27 474.97,727.35 480.7,725.81 475.16,723.69 475.47,717.76 471.74,722.37 466.2,720.25 
		469.43,725.22 465.69,729.83 471.42,728.3 	"/>
</g>
<g>
	<polygon class="st12" points="264.94,64.79 268.59,69.47 274.17,67.44 270.85,72.36 274.5,77.03 268.8,75.4 265.48,80.32 
		265.27,74.39 259.57,72.75 265.14,70.72 	"/>
	<polygon class="st12" points="503.84,724.12 503.64,718.19 509.21,716.16 503.51,714.52 503.3,708.59 499.98,713.51 494.28,711.88 
		497.93,716.55 494.61,721.47 500.19,719.44 	"/>
</g>
<g>
	<polygon class="st12" points="236.66,76.46 240.71,80.8 246.08,78.29 243.21,83.48 247.25,87.82 241.43,86.69 238.55,91.88 
		237.83,85.99 232.01,84.86 237.38,82.35 	"/>
	<polygon class="st12" points="532.12,712.45 531.4,706.56 536.77,704.05 530.95,702.92 530.23,697.03 527.35,702.22 521.53,701.09 
		525.57,705.43 522.7,710.62 528.07,708.11 	"/>
</g>
<g>
	<polygon class="st12" points="209.51,90.55 213.92,94.52 219.06,91.55 216.64,96.97 221.05,100.94 215.15,100.32 212.74,105.74 
		211.5,99.94 205.6,99.32 210.74,96.35 	"/>
	<polygon class="st12" points="559.27,698.37 558.04,692.56 563.18,689.59 557.28,688.97 556.04,683.17 553.63,688.59 
		547.73,687.97 552.14,691.94 549.73,697.36 554.86,694.4 	"/>
</g>
<g>
	<polygon class="st12" points="183.69,106.94 188.42,110.51 193.28,107.11 191.35,112.72 196.09,116.29 190.16,116.19 188.23,121.8 
		186.49,116.12 180.56,116.02 185.42,112.62 	"/>
	<polygon class="st12" points="585.09,681.97 583.36,676.29 588.22,672.89 582.29,672.79 580.55,667.11 578.62,672.72 
		572.69,672.62 577.43,676.19 575.5,681.8 580.36,678.4 	"/>
</g>
<g>
	<polygon class="st12" points="159.39,125.53 164.42,128.67 168.97,124.86 167.53,130.62 172.56,133.76 166.65,134.18 
		165.21,139.93 162.99,134.43 157.07,134.85 161.61,131.03 	"/>
	<polygon class="st12" points="609.39,663.38 607.17,657.88 611.71,654.07 605.79,654.48 603.57,648.98 602.14,654.73 
		596.22,655.15 601.25,658.29 599.81,664.05 604.36,660.24 	"/>
</g>
<g>
	<polygon class="st12" points="136.81,146.16 142.1,148.86 146.29,144.66 145.36,150.52 150.65,153.22 144.79,154.14 143.86,160 
		141.17,154.72 135.31,155.65 139.5,151.45 	"/>
	<polygon class="st12" points="631.97,642.75 629.28,637.46 633.47,633.26 627.61,634.19 624.92,628.91 623.99,634.77 
		618.13,635.69 623.42,638.39 622.49,644.25 626.69,640.05 	"/>
</g>
<g>
	<polygon class="st12" points="116.11,168.69 121.61,170.91 125.43,166.36 125.01,172.28 130.51,174.51 124.76,175.94 
		124.34,181.86 121.2,176.83 115.44,178.26 119.25,173.72 	"/>
	<polygon class="st12" points="652.67,620.22 649.53,615.19 653.34,610.65 647.58,612.08 644.44,607.05 644.02,612.97 638.27,614.4 
		643.77,616.63 643.35,622.55 647.17,618 	"/>
</g>
<g>
	<polygon class="st12" points="97.45,192.93 103.13,194.66 106.53,189.8 106.64,195.73 112.31,197.47 106.7,199.4 106.8,205.33 
		103.23,200.59 97.62,202.53 101.03,197.67 	"/>
	<polygon class="st12" points="671.33,595.98 667.76,591.24 671.16,586.38 665.55,588.32 661.98,583.58 662.08,589.51 
		656.47,591.44 662.15,593.18 662.25,599.11 665.65,594.25 	"/>
</g>
<g>
	<polygon class="st12" points="80.98,218.7 86.79,219.94 89.75,214.8 90.37,220.7 96.18,221.93 90.76,224.35 91.38,230.25 
		87.41,225.84 81.99,228.25 84.95,223.11 	"/>
	<polygon class="st12" points="687.8,570.21 683.83,565.8 686.79,560.66 681.37,563.07 677.4,558.66 678.02,564.56 672.6,566.98 
		678.41,568.21 679.03,574.11 681.99,568.97 	"/>
</g>
<g>
	<polygon class="st12" points="66.82,245.82 72.71,246.54 75.22,241.16 76.35,246.99 82.24,247.71 77.05,250.58 78.18,256.41 
		73.84,252.36 68.65,255.24 71.16,249.86 	"/>
	<polygon class="st12" points="701.96,543.1 697.62,539.05 700.13,533.67 694.94,536.55 690.6,532.5 691.73,538.33 686.54,541.2 
		692.43,541.93 693.56,547.75 696.07,542.37 	"/>
</g>
<g>
	<polygon class="st12" points="55.07,274.06 61,274.27 63.03,268.69 64.67,274.39 70.6,274.6 65.68,277.92 67.31,283.62 
		62.64,279.97 57.72,283.29 59.75,277.71 	"/>
	<polygon class="st12" points="713.71,514.85 709.03,511.2 711.06,505.62 706.14,508.94 701.47,505.29 703.1,510.99 698.18,514.31 
		704.11,514.52 705.75,520.22 707.78,514.64 	"/>
</g>
<g>
	<polygon class="st12" points="45.83,303.22 51.76,302.91 53.29,297.18 55.42,302.72 61.34,302.41 56.73,306.14 58.86,311.68 
		53.88,308.45 49.27,312.18 50.81,306.45 	"/>
	<polygon class="st12" points="722.95,485.69 717.97,482.46 719.51,476.73 714.9,480.46 709.92,477.23 712.05,482.77 707.44,486.5 
		713.36,486.19 715.49,491.73 717.02,486 	"/>
</g>
<g>
	<polygon class="st12" points="39.17,333.07 45.04,332.25 46.07,326.4 48.68,331.74 54.55,330.91 50.28,335.03 52.88,340.37 
		47.65,337.58 43.38,341.7 44.41,335.86 	"/>
	<polygon class="st12" points="729.61,455.84 724.37,453.05 725.4,447.21 721.13,451.33 715.9,448.54 718.5,453.88 714.23,458 
		720.1,457.17 722.71,462.51 723.74,456.66 	"/>
</g>
<g>
	<polygon class="st12" points="35.13,363.4 40.91,362.06 41.43,356.15 44.49,361.24 50.27,359.9 46.38,364.38 49.43,369.46 
		43.97,367.15 40.08,371.62 40.59,365.71 	"/>
	<polygon class="st12" points="733.65,425.52 728.19,423.2 728.7,417.29 724.81,421.76 719.35,419.45 722.4,424.53 718.51,429.01 
		724.29,427.67 727.35,432.76 727.87,426.85 	"/>
</g>
<g>
	<polygon class="st12" points="33.75,393.95 39.4,392.12 39.4,386.19 42.89,390.99 48.53,389.15 45.04,393.95 48.53,398.75 
		42.89,396.92 39.4,401.72 39.4,395.79 	"/>
	<polygon class="st12" points="735.03,394.96 729.38,393.12 729.38,387.19 725.9,391.99 720.25,390.16 723.74,394.96 720.25,399.76 
		725.9,397.92 729.38,402.72 729.38,396.79 	"/>
</g>
<g>
	<polygon class="st12" points="35.05,424.51 40.51,422.2 39.99,416.29 43.88,420.76 49.34,418.45 46.29,423.53 50.18,428.01 
		44.4,426.67 41.34,431.76 40.83,425.85 	"/>
	<polygon class="st12" points="733.73,364.4 727.95,363.06 727.44,357.15 724.38,362.24 718.6,360.9 722.49,365.38 719.44,370.46 
		724.9,368.15 728.79,372.62 728.27,366.71 	"/>
</g>
<g>
	<polygon class="st12" points="38.99,454.85 44.23,452.06 43.2,446.22 47.47,450.34 52.71,447.56 50.11,452.89 54.38,457.01 
		48.5,456.18 45.9,461.52 44.87,455.67 	"/>
	<polygon class="st12" points="729.79,334.06 723.91,333.24 722.88,327.39 720.28,332.73 714.4,331.9 718.67,336.02 716.07,341.35 
		721.31,338.57 725.58,342.69 724.55,336.85 	"/>
</g>
<g>
	<polygon class="st12" points="45.57,484.72 50.55,481.49 49.01,475.76 53.62,479.49 58.6,476.26 56.47,481.8 61.08,485.53 
		55.16,485.22 53.03,490.76 51.5,485.03 	"/>
	<polygon class="st12" points="723.21,304.19 717.28,303.88 715.75,298.15 713.62,303.69 707.7,303.38 712.31,307.11 710.18,312.65 
		715.16,309.42 719.77,313.15 718.23,307.42 	"/>
</g>
<g>
	<polygon class="st12" points="54.73,513.91 59.4,510.25 57.38,504.68 62.29,508 66.97,504.34 65.33,510.05 70.25,513.37 
		64.32,513.57 62.69,519.28 60.66,513.7 	"/>
	<polygon class="st12" points="714.05,275 708.12,275.21 706.09,269.63 704.46,275.34 698.53,275.54 703.45,278.86 701.81,284.57 
		706.49,280.91 711.41,284.23 709.38,278.66 	"/>
</g>
<g>
	<polygon class="st12" points="66.39,542.18 70.73,538.14 68.23,532.76 73.42,535.64 77.75,531.59 76.62,537.42 81.81,540.29 
		75.92,541.01 74.79,546.84 72.28,541.46 	"/>
	<polygon class="st12" points="702.39,246.73 696.5,247.45 693.99,242.07 692.86,247.9 686.97,248.62 692.16,251.49 691.03,257.32 
		695.36,253.27 700.55,256.15 698.05,250.77 	"/>
</g>
<g>
	<polygon class="st12" points="80.48,569.34 84.45,564.93 81.48,559.79 86.9,562.2 90.87,557.79 90.25,563.7 95.67,566.11 
		89.87,567.34 89.25,573.24 86.28,568.1 	"/>
	<polygon class="st12" points="688.3,219.57 682.5,220.81 679.53,215.67 678.91,221.57 673.11,222.8 678.53,225.22 677.91,231.12 
		681.88,226.71 687.3,229.12 684.33,223.98 	"/>
</g>
<g>
	<polygon class="st12" points="96.88,595.16 100.45,590.42 97.05,585.56 102.66,587.49 106.23,582.75 106.12,588.69 111.73,590.62 
		106.06,592.35 105.96,598.29 102.55,593.43 	"/>
	<polygon class="st12" points="671.9,193.75 666.23,195.49 662.82,190.62 662.72,196.56 657.05,198.29 662.66,200.22 662.55,206.16 
		666.12,201.42 671.73,203.35 668.33,198.49 	"/>
</g>
<g>
	<polygon class="st12" points="115.47,619.45 118.61,614.42 114.8,609.88 120.55,611.31 123.7,606.28 124.11,612.2 129.87,613.64 
		124.37,615.86 124.78,621.78 120.97,617.23 	"/>
	<polygon class="st12" points="653.32,169.46 647.81,171.68 644,167.13 644.41,173.05 638.91,175.27 644.67,176.71 645.08,182.63 
		648.23,177.6 653.98,179.03 650.17,174.49 	"/>
</g>
<g>
	<polygon class="st12" points="136.1,642.04 138.79,636.75 134.6,632.55 140.46,633.48 143.15,628.2 144.08,634.06 149.94,634.98 
		144.65,637.68 145.58,643.54 141.39,639.34 	"/>
	<polygon class="st12" points="632.68,146.87 627.4,149.57 623.2,145.37 624.13,151.23 618.84,153.93 624.7,154.85 625.63,160.71 
		628.32,155.43 634.18,156.36 629.99,152.16 	"/>
</g>
<g>
	<polygon class="st12" points="158.62,662.73 160.84,657.23 156.3,653.42 162.22,653.83 164.44,648.33 165.88,654.09 171.79,654.5 
		166.76,657.65 168.2,663.4 163.65,659.59 	"/>
	<polygon class="st12" points="610.16,126.18 605.13,129.32 600.58,125.51 602.02,131.26 596.99,134.41 602.9,134.82 604.34,140.58 
		606.56,135.08 612.48,135.49 607.94,131.68 	"/>
</g>
<g>
	<polygon class="st12" points="182.86,681.39 184.6,675.72 179.74,672.31 185.67,672.21 187.4,666.54 189.34,672.15 195.27,672.04 
		190.53,675.61 192.46,681.22 187.6,677.82 	"/>
	<polygon class="st12" points="585.92,107.52 581.18,111.09 576.32,107.69 578.25,113.3 573.51,116.87 579.44,116.76 581.38,122.37 
		583.11,116.7 589.04,116.6 584.18,113.19 	"/>
</g>
<g>
	<polygon class="st12" points="208.64,697.86 209.87,692.06 204.73,689.09 210.63,688.47 211.87,682.67 214.28,688.09 
		220.18,687.47 215.77,691.44 218.19,696.86 213.05,693.89 	"/>
	<polygon class="st12" points="560.14,91.05 555.73,95.02 550.6,92.05 553.01,97.47 548.6,101.44 554.5,100.82 556.91,106.24 
		558.15,100.44 564.05,99.82 558.91,96.85 	"/>
</g>
<g>
	<polygon class="st12" points="235.75,712.03 236.47,706.14 231.1,703.63 236.92,702.5 237.64,696.61 240.52,701.8 246.34,700.67 
		242.3,705.01 245.17,710.19 239.8,707.69 	"/>
	<polygon class="st12" points="533.03,76.88 528.98,81.22 523.61,78.72 526.48,83.91 522.44,88.24 528.26,87.11 531.14,92.3 
		531.86,86.41 537.68,85.28 532.31,82.77 	"/>
</g>
<g>
	<polygon class="st12" points="263.99,723.77 264.2,717.84 258.63,715.81 264.33,714.18 264.54,708.25 267.85,713.17 273.56,711.53 
		269.9,716.21 273.22,721.13 267.65,719.1 	"/>
	<polygon class="st12" points="504.79,65.14 501.13,69.81 495.56,67.78 498.88,72.7 495.22,77.38 500.93,75.74 504.24,80.66 
		504.45,74.73 510.15,73.1 504.58,71.07 	"/>
</g>
<g>
	<polygon class="st12" points="293.15,733.01 292.84,727.09 287.11,725.55 292.65,723.43 292.34,717.5 296.08,722.11 301.61,719.99 
		298.38,724.96 302.12,729.57 296.39,728.04 	"/>
	<polygon class="st12" points="475.63,55.9 472.39,60.87 466.66,59.34 470.4,63.95 467.17,68.92 472.71,66.8 476.44,71.41 
		476.13,65.48 481.67,63.36 475.94,61.82 	"/>
</g>
<g>
	<polygon class="st12" points="323.01,739.68 322.18,733.8 316.34,732.77 321.67,730.17 320.85,724.29 324.97,728.56 330.3,725.96 
		327.52,731.2 331.64,735.47 325.79,734.44 	"/>
	<polygon class="st12" points="445.77,49.23 442.99,54.47 437.14,53.44 441.26,57.71 438.48,62.95 443.81,60.35 447.93,64.62 
		447.11,58.74 452.44,56.14 446.6,55.11 	"/>
</g>
<g>
	<polygon class="st12" points="353.33,743.71 352,737.93 346.08,737.41 351.17,734.36 349.84,728.58 354.31,732.47 359.4,729.41 
		357.08,734.88 361.56,738.77 355.65,738.25 	"/>
	<polygon class="st12" points="415.45,45.2 413.13,50.66 407.22,50.14 411.7,54.03 409.38,59.5 414.47,56.44 418.94,60.33 
		417.61,54.55 422.7,51.5 416.78,50.98 	"/>
</g>
<circle class="st13" cx="384.41" cy="395.45" r="242.41"/>
</svg>
